<?xml version="1.0" encoding="UTF-8" standalone="no"?>
<svg
   viewBox="0 0 499.99999 500.00002"
   version="1.1"
   id="svg7"
   sodipodi:docname="icono.svg"
   width="500"
   height="500"
   inkscape:version="1.4.3 (0d15f75042, 2025-12-25)"
   xmlns:inkscape="http://www.inkscape.org/namespaces/inkscape"
   xmlns:sodipodi="http://sodipodi.sourceforge.net/DTD/sodipodi-0.dtd"
   xmlns="http://www.w3.org/2000/svg"
   xmlns:svg="http://www.w3.org/2000/svg">
  <sodipodi:namedview
     id="namedview7"
     pagecolor="#ffffff"
     bordercolor="#000000"
     borderopacity="0.25"
     inkscape:showpageshadow="2"
     inkscape:pageopacity="0.0"
     inkscape:pagecheckerboard="0"
     inkscape:deskcolor="#d1d1d1"
     inkscape:zoom="1.1495563"
     inkscape:cx="175.28502"
     inkscape:cy="257.49065"
     inkscape:window-width="1920"
     inkscape:window-height="963"
     inkscape:window-x="0"
     inkscape:window-y="0"
     inkscape:window-maximized="1"
     inkscape:current-layer="svg7" />
  <defs
     id="defs1">
    <style
       id="style1">.cls-1{fill:#1f52a1;stroke:#1f52a1;}.cls-1,.cls-2{stroke-miterlimit:10;}.cls-2{stroke:#000;}</style>
    <filter
       style="color-interpolation-filters:sRGB;"
       inkscape:label="Drop Shadow"
       id="filter19"
       x="-0.064"
       y="-0.064"
       width="1.1457778"
       height="1.1457778">
      <feFlood
         result="flood"
         in="SourceGraphic"
         flood-opacity="0.498039"
         flood-color="rgb(0,0,0)"
         id="feFlood18" />
      <feGaussianBlur
         result="blur"
         in="SourceGraphic"
         stdDeviation="12.000000"
         id="feGaussianBlur18" />
      <feOffset
         result="offset"
         in="blur"
         dx="8.000000"
         dy="8.000000"
         id="feOffset18" />
      <feComposite
         result="comp1"
         operator="in"
         in="flood"
         in2="offset"
         id="feComposite18" />
      <feComposite
         result="comp2"
         operator="over"
         in="SourceGraphic"
         in2="comp1"
         id="feComposite19" />
    </filter>
  </defs>
  <circle
     style="fill:#ffffff;stroke-width:1.11497;fill-opacity:1;filter:url(#filter19)"
     id="path8"
     cx="250"
     cy="250"
     r="225" />
  <g
     id="g7"
     transform="matrix(1.3923489,0,0,1.3923489,103.91647,90.923882)">
    <g
       id="Capa_2"
       data-name="Capa 2">
      <path
         class="cls-1"
         d="M 127.78,80.08 C 121,78.23 112,68.8 110.54,61.58 l 7.14,-6.08 c 1.47,7.22 10.07,15.83 16.9,17.68 z"
         transform="translate(0.5,0.58)"
         id="path1" />
      <path
         class="cls-1"
         d="m 138.12,69.29 c -6.83,-1.85 -14.39,-9.6 -15.86,-16.82 5.78,-5.06 15.49,-9 15.49,-9 0.76,4.81 5.49,9.79 10.51,11.58 0,0.02 -5.4,9.13 -10.14,14.24 z"
         transform="translate(0.5,0.58)"
         id="path2" />
      <path
         class="cls-1"
         d="M 175,32.56 C 161.16,49.47 145.49,47 145.49,47 c -5.74,-6.64 -7.11,-18.7 2.77,-27.25 9.88,-8.55 24.12,-1 38.76,-19 0,0 1.35,14.34 -6,34.72 -8.9,24.82 -31.32,14.83 -31.32,14.83 0,0 16.3,2.04 25.3,-17.74 z"
         transform="translate(0.5,0.58)"
         id="path3" />
      <polygon
         class="cls-1"
         points="117.27,167.33 132.53,150.6 151.09,170.37 136.81,184.98 "
         id="polygon3" />
      <path
         class="cls-1"
         d="m 62,173.6 c 0,0 0.23,-156.74 0.23,-168.6 0,-6.6 24.92,-6.6 24.92,0 v 77.12 c 0,0 15.45,-14.29 19.21,-17 1.47,7.21 10.28,17 17.11,18.85 0,0 -17.47,17.81 -29.47,27.77 16.19,15.34 36.23,34.68 36.23,34.68 l -17.68,18.83 -25.27,-24.31 c 0,0 0.17,47.49 0,53.79 -16.1,53.92 -116,34.34 -79.21,-10.51 C 23.9,165.93 52.41,166.69 62,173.6 Z"
         transform="translate(0.5,0.58)"
         id="path4" />
    </g>
    <g
       id="Capa_3"
       data-name="Capa 3">
      <path
         class="cls-1"
         d="m 177.52,188.82 c -7.36,-1.31 -26,-15.21 -26,-15.21 l -10.66,11.29 c 0,0 14.79,17.45 16.32,24.77 11.15,2.38 24.32,6.38 34.7,12.68 a 113.78,113.78 0 0 1 -14.36,-33.53 z m -8.09,11.41 -1.43,1.28 a 1.79,1.79 0 0 1 -2.42,0 L 161.91,198 a 1.79,1.79 0 0 1 0,-2.6 l 1.35,-1.27 a 1.79,1.79 0 0 1 2.45,0 l 3.74,3.47 a 1.79,1.79 0 0 1 -0.02,2.63 z"
         transform="translate(0.5,0.58)"
         id="path5" />
    </g>
    <g
       id="Capa_8"
       data-name="Capa 8">
      <path
         class="cls-2"
         d="M 209.33,201.27"
         transform="translate(0.5,0.58)"
         id="path6" />
      <path
         class="cls-2"
         d="M 178.62,201.27"
         transform="translate(0.5,0.58)"
         id="path7" />
    </g>
  </g>
</svg>
